<svg xmlns="http://www.w3.org/2000/svg" viewBox="0 0 22 22" fill="none">
  <path fill-rule="evenodd" clip-rule="evenodd" d="M0 0.88C0 0.393994 0.38596 0 0.862058 0H2.45051C3.21239 0 3.90889 0.439413 4.24961 1.13506L4.84307 2.34667H20.5611C21.6643 2.34667 22.3559 3.56324 21.8086 4.541L18.0332 11.2854C17.6751 11.9252 17.0086 12.32 16.2868 12.32H7.66159L6.14044 14.8045C6.02082 14.9999 6.15841 15.2533 6.38411 15.2533H19.2526C19.7287 15.2533 20.1147 15.6473 20.1147 16.1333C20.1147 16.6193 19.7287 17.0133 19.2526 17.0133H6.38411C4.80423 17.0133 3.84105 15.2394 4.67839 13.8717L6.23163 11.3348L3.51602 3.5728L2.70752 1.92215C2.65884 1.82277 2.55935 1.76 2.45051 1.76H0.862058C0.38596 1.76 0 1.36601 0 0.88ZM5.53357 4.10667L7.79133 10.56H16.2868C16.3899 10.56 16.4851 10.5036 16.5363 10.4122L20.0659 4.10667H5.53357ZM8.90793 20.24C8.90793 21.212 8.13602 22 7.18381 22C6.23161 22 5.4597 21.212 5.4597 20.24C5.4597 19.268 6.23161 18.48 7.18381 18.48C8.13602 18.48 8.90793 19.268 8.90793 20.24ZM17.5285 22C18.4807 22 19.2526 21.212 19.2526 20.24C19.2526 19.268 18.4807 18.48 17.5285 18.48C16.5763 18.48 15.8044 19.268 15.8044 20.24C15.8044 21.212 16.5763 22 17.5285 22Z" fill="white"/>
</svg>