<svg xmlns="http://www.w3.org/2000/svg" viewBox="0 0 22 22" fill="none">
  <path fill-rule="evenodd" clip-rule="evenodd" d="M11 1.69231C5.85951 1.69231 1.69231 5.85951 1.69231 11C1.69231 13.2589 2.49702 15.3299 3.83541 16.9419C5.46848 15.2718 7.66269 13.8948 11 13.8948C14.3358 13.8948 16.5301 15.2609 18.1655 16.9407C19.5034 15.3289 20.3077 13.2584 20.3077 11C20.3077 5.85951 16.1405 1.69231 11 1.69231ZM16.9714 18.1399C15.5684 16.6908 13.7787 15.587 11 15.587C8.2245 15.587 6.43403 16.6977 5.02968 18.1409C6.64573 19.4934 8.72778 20.3077 11 20.3077C13.2727 20.3077 15.3552 19.4931 16.9714 18.1399ZM0 11C0 4.92487 4.92487 0 11 0C17.0751 0 22 4.92487 22 11C22 17.0751 17.0751 22 11 22C4.92487 22 0 17.0751 0 11ZM11 5.96756C9.40127 5.96756 8.10526 7.26357 8.10526 8.8623C8.10526 10.461 9.40127 11.757 11 11.757C12.5987 11.757 13.8948 10.461 13.8948 8.8623C13.8948 7.26357 12.5987 5.96756 11 5.96756ZM6.41295 8.8623C6.41295 6.32894 8.46664 4.27525 11 4.27525C13.5334 4.27525 15.587 6.32894 15.587 8.8623C15.587 11.3957 13.5334 13.4493 11 13.4493C8.46664 13.4493 6.41295 11.3957 6.41295 8.8623Z" fill="white"/>
</svg>